# xmcd
#
# Track frame offsets:
#	150
#	9437
#	20250
#	33487
#	45012
#	55137
#	64225
#	74330
#	84962
#	96512
#	107000
#	118057
#	129300
#	138475
#	149400
#	162815
#	174302
#	184335
#	193457
#	203642
#	214337
#	226145
#	236812
#	247837
#
# Disc length: 3455 seconds
#
# Revision: 2
# Processed by: cddbd v1.5.2PL0 Copyright (c) Steve Scherf et al.
# Submitted via: EZCDAudioConverter 1.3.4.1
#
DISCID=4f0d7d18
DTITLE=The Ventures - Walk Don't Run '64
DYEAR=2004
DGENRE=
TTITLE0=Diamond Head
TTITLE1=Walk, Don't Run '64
TTITLE2=The House Of The Rising Sun
TTITLE3=Night Train
TTITLE4=Blue Star
TTITLE5=Rap City
TTITLE6=One Mint Julep
TTITLE7=Peach Fuzz
TTITLE8=Night Walk
TTITLE9=The Creeper
TTITLE10=Pedal Pusher
TTITLE11=Stranger On The Shore
TTITLE12=Diamond Head [Mono]
TTITLE13=Walk, Don't Run '64 [Mono]
TTITLE14=The House Of The Rising Sun [Mono]
TTITLE15=Night Train [Mono]
TTITLE16=Blue Star [Mono]
TTITLE17=Rap City [Mono]
TTITLE18=One Mint Julep [Mono]
TTITLE19=Peach Fuzz [Mono]
TTITLE20=Night Walk [Mono]
TTITLE21=The Creeper [Mono]
TTITLE22=Pedal Pusher [Mono]
TTITLE23=Stranger On The Shore [Mono]
EXTD=
EXTT0=
EXTT1=
EXTT2=
EXTT3=
EXTT4=
EXTT5=
EXTT6=
EXTT7=
EXTT8=
EXTT9=
EXTT10=
EXTT11=
EXTT12=
EXTT13=
EXTT14=
EXTT15=
EXTT16=
EXTT17=
EXTT18=
EXTT19=
EXTT20=
EXTT21=
EXTT22=
EXTT23=
PLAYORDER=
